<svg id="svg" version="1.1" xmlns="http://www.w3.org/2000/svg" xmlns:xlink="http://www.w3.org/1999/xlink" width="400" height="135.6149732620321" viewBox="0, 0, 400,135.6149732620321"><g id="svgg"><path id="path0" d="M84.492 22.220 C 81.228 23.018,77.249 26.046,76.726 28.130 C 76.513 28.979,76.291 29.076,75.075 28.848 C 64.689 26.899,57.152 54.152,61.875 76.578 C 62.734 80.657,64.574 87.355,64.990 87.914 C 65.164 88.150,65.648 89.264,66.064 90.391 C 67.405 94.018,71.535 99.777,74.829 102.612 C 78.868 106.088,79.040 105.953,76.526 101.283 C 66.042 81.810,62.505 62.116,66.508 45.505 C 68.082 38.973,70.732 34.201,73.613 32.712 C 75.586 31.692,75.857 31.993,74.242 33.411 C 68.071 38.829,65.242 60.179,68.778 74.652 C 70.979 83.661,73.203 89.785,77.750 99.358 C 80.587 105.330,80.848 105.491,80.173 100.856 C 78.907 92.165,79.056 79.996,80.460 77.373 C 80.870 76.606,80.946 76.604,82.262 77.311 C 84.434 78.479,88.634 78.285,91.709 76.874 C 100.446 72.867,105.622 82.103,105.684 101.807 L 105.699 106.738 106.778 105.455 C 113.894 96.990,119.621 70.719,116.599 60.401 C 115.809 57.704,115.809 57.699,116.746 56.032 C 121.227 48.060,112.066 30.484,100.382 24.638 C 95.302 22.096,88.950 21.129,84.492 22.220 M96.914 28.180 C 100.009 29.628,106.210 35.393,107.939 38.429 C 109.017 40.324,108.701 40.164,105.183 37.041 C 96.869 29.659,90.075 27.920,82.401 31.209 C 79.577 32.420,79.081 31.314,81.507 29.217 C 85.105 26.107,91.556 25.672,96.914 28.180 M88.687 40.407 C 91.792 41.454,95.579 42.465,97.104 42.653 C 100.407 43.060,101.434 44.375,102.216 49.199 C 104.833 65.330,90.282 82.029,81.036 73.506 C 72.672 65.796,70.118 46.928,76.688 41.373 C 80.690 37.988,81.359 37.935,88.687 40.407 M159.389 48.159 C 158.296 49.251,158.525 51.619,159.804 52.457 C 161.868 53.810,164.251 51.620,163.341 49.207 C 162.658 47.395,160.677 46.870,159.389 48.159 M273.826 48.268 L 271.501 48.997 272.649 49.749 L 273.797 50.501 273.797 60.673 C 273.797 67.220,273.636 71.005,273.347 71.295 C 273.032 71.610,273.695 71.829,275.556 72.023 C 278.383 72.319,278.969 72.167,278.153 71.351 C 277.788 70.986,277.647 67.588,277.647 59.166 C 277.647 45.911,278.013 46.954,273.826 48.268 M255.522 51.872 C 251.930 62.441,249.009 69.975,248.162 70.854 L 247.183 71.872 248.476 71.872 C 249.188 71.872,250.073 71.988,250.445 72.131 C 250.992 72.341,251.074 72.159,250.879 71.168 C 250.731 70.418,251.022 68.873,251.632 67.166 L 252.627 64.385 256.260 64.385 L 259.893 64.385 261.270 67.166 C 262.028 68.695,262.584 70.380,262.506 70.909 C 262.371 71.829,262.497 71.872,265.352 71.872 C 267.877 71.872,268.262 71.778,267.839 71.268 C 267.563 70.935,266.414 68.577,265.285 66.027 C 256.649 46.515,257.114 47.189,255.522 51.872 M137.540 50.200 C 123.792 54.745,127.759 72.257,142.546 72.294 C 149.104 72.311,150.496 71.193,150.669 65.775 L 150.802 61.604 147.653 61.604 C 144.606 61.604,144.532 61.629,145.379 62.353 C 146.117 62.985,146.275 63.704,146.389 66.952 L 146.524 70.802 143.316 70.911 C 137.119 71.122,133.905 67.577,133.910 60.535 C 133.916 51.683,142.764 47.795,148.824 53.980 L 150.217 55.401 150.082 53.476 C 149.857 50.271,142.856 48.442,137.540 50.200 M320.041 50.898 C 319.710 51.480,318.479 52.972,317.305 54.213 C 315.236 56.401,315.205 56.471,316.302 56.471 L 317.433 56.471 317.433 63.335 C 317.433 72.202,318.936 74.062,324.113 71.606 C 326.225 70.604,326.444 69.980,324.560 70.333 C 321.442 70.918,321.283 70.568,321.283 63.087 L 321.283 56.471 323.422 56.471 C 325.276 56.471,325.561 56.357,325.561 55.615 C 325.561 54.864,325.276 54.759,323.230 54.759 L 320.898 54.759 320.770 52.299 C 320.647 49.946,320.616 49.885,320.041 50.898 M160.041 55.714 C 157.446 56.496,157.356 56.567,158.330 57.052 C 159.470 57.620,160.189 69.972,159.154 71.218 C 158.814 71.628,159.318 71.813,161.352 72.025 C 164.159 72.319,164.743 72.166,163.929 71.351 C 163.576 70.998,163.422 68.479,163.422 63.041 C 163.422 54.147,163.645 54.629,160.041 55.714 M178.610 55.355 C 177.668 55.651,176.465 56.126,175.936 56.411 C 175.075 56.874,174.973 56.831,174.973 56.003 C 174.973 54.983,173.736 55.013,170.053 56.124 C 168.643 56.549,168.516 56.668,169.328 56.802 C 169.894 56.895,170.486 57.417,170.718 58.029 C 171.280 59.506,171.241 70.727,170.672 71.296 C 170.356 71.612,170.959 71.823,172.690 72.002 C 174.048 72.142,175.168 72.218,175.180 72.171 C 175.192 72.124,175.089 69.005,174.950 65.241 C 174.670 57.634,174.764 57.326,177.361 57.326 C 180.271 57.326,180.731 58.275,180.890 64.595 C 181.013 69.472,180.932 70.341,180.289 71.051 C 179.569 71.847,179.598 71.872,181.271 71.872 C 182.219 71.872,183.618 71.996,184.380 72.149 C 185.682 72.409,185.737 72.372,185.290 71.535 C 185.014 71.021,184.813 68.452,184.813 65.458 C 184.813 56.211,183.368 53.858,178.610 55.355 M194.089 55.379 C 189.845 56.893,188.757 61.245,191.887 64.186 L 192.948 65.182 191.447 66.419 C 189.232 68.244,189.722 72.299,192.157 72.299 C 192.431 72.299,191.854 73.040,190.873 73.945 C 186.007 78.438,192.911 83.057,199.510 79.724 C 207.229 75.826,204.932 68.538,196.116 68.956 C 191.138 69.192,190.888 66.326,195.845 65.843 C 200.350 65.405,202.195 63.491,201.801 59.665 L 201.559 57.326 203.026 57.326 C 204.305 57.326,204.492 57.189,204.492 56.257 C 204.492 55.069,204.151 54.990,201.823 55.636 C 200.584 55.980,199.786 55.931,198.279 55.420 C 195.982 54.640,196.157 54.642,194.089 55.379 M211.508 55.778 C 201.340 60.538,207.913 75.582,218.271 71.255 C 221.096 70.074,221.014 69.462,218.054 69.644 C 214.048 69.891,211.436 67.767,210.682 63.650 L 210.391 62.059 215.677 61.939 L 220.963 61.818 220.825 60.549 C 220.362 56.282,215.619 53.853,211.508 55.778 M227.221 55.670 C 224.242 56.502,223.515 56.898,224.966 56.898 C 226.389 56.898,226.738 58.449,226.738 64.759 C 226.738 70.484,226.504 71.475,225.027 72.003 C 224.674 72.129,225.980 72.247,227.929 72.266 C 231.306 72.298,231.453 72.260,231.031 71.472 C 230.782 71.007,230.588 67.824,230.588 64.199 C 230.588 56.965,230.531 57.069,233.623 58.681 C 235.745 59.786,236.724 59.411,236.924 57.416 C 237.157 55.083,235.418 54.377,232.723 55.711 C 230.781 56.672,230.588 56.698,230.588 56.003 C 230.588 54.870,230.214 54.834,227.221 55.670 M289.525 55.181 C 282.439 57.341,280.802 67.995,287.060 71.230 C 289.541 72.514,294.647 71.909,297.090 70.043 C 297.846 69.466,297.648 69.425,294.951 69.597 C 290.529 69.880,287.487 67.327,287.487 63.333 L 287.487 62.032 292.620 62.032 C 298.477 62.032,298.677 61.865,296.808 58.540 C 295.299 55.856,292.120 54.390,289.525 55.181 M303.784 55.690 C 301.186 56.496,301.098 56.566,302.073 57.053 C 303.095 57.562,303.102 57.611,303.102 64.385 L 303.102 71.205 302.032 71.746 C 301.090 72.222,301.412 72.288,304.730 72.293 L 308.498 72.299 307.832 71.349 C 307.011 70.177,306.841 58.433,307.638 57.941 C 307.897 57.780,309.045 58.087,310.189 58.623 C 312.600 59.752,313.583 59.364,313.583 57.284 C 313.583 55.053,311.888 54.430,309.300 55.711 L 307.166 56.768 307.166 55.763 C 307.166 54.593,307.309 54.596,303.784 55.690 M332.809 55.165 C 326.999 56.928,327.431 61.876,333.692 65.283 C 336.888 67.022,337.327 69.063,334.875 70.780 C 333.392 71.819,331.750 71.592,330.068 70.116 L 328.556 68.788 328.556 69.892 C 328.556 73.204,335.274 73.487,338.278 70.301 C 340.831 67.595,339.930 64.314,336.109 62.402 C 332.080 60.385,330.311 57.348,332.648 56.460 C 334.504 55.755,336.122 55.984,337.507 57.150 L 338.824 58.258 338.824 57.167 C 338.824 56.223,338.526 55.987,336.607 55.418 C 334.157 54.690,334.335 54.702,332.809 55.165 M197.195 56.447 C 199.353 58.605,198.516 65.027,196.077 65.027 C 194.042 65.027,193.007 58.874,194.683 56.742 C 195.743 55.395,196.102 55.353,197.195 56.447 M257.703 59.219 C 258.555 61.201,259.251 62.933,259.251 63.069 C 259.251 63.205,257.816 63.316,256.061 63.316 L 252.871 63.316 254.210 59.465 C 255.843 54.770,255.794 54.774,257.703 59.219 M216.375 56.709 C 218.244 58.018,217.167 60.749,214.782 60.749 C 214.123 60.749,212.951 60.875,212.179 61.029 L 210.775 61.310 211.039 59.685 C 211.541 56.594,214.141 55.144,216.375 56.709 M293.472 57.108 C 294.671 58.385,294.176 60.161,292.528 60.495 C 287.677 61.479,287.003 61.222,287.944 58.745 C 289.039 55.865,291.594 55.109,293.472 57.108 M199.786 73.477 C 202.407 74.786,201.960 77.146,198.803 78.675 C 194.972 80.529,191.658 79.322,191.658 76.073 C 191.658 73.067,196.116 71.643,199.786 73.477 " stroke="none" fill="white" fill-rule="evenodd"></path></g></svg>