<svg id="svg" version="1.1" xmlns="http://www.w3.org/2000/svg" xmlns:xlink="http://www.w3.org/1999/xlink" width="400" height="135.6149732620321" viewBox="0, 0, 400,135.6149732620321"><g id="svgg"><path id="path0" d="M87.250 21.609 C 83.355 22.247,81.839 22.798,79.647 24.370 C 78.420 25.251,77.338 26.570,76.745 27.912 C 76.308 28.899,76.141 29.012,75.418 28.808 C 71.755 27.772,67.148 31.721,64.110 38.500 C 60.325 46.942,59.316 63.273,61.771 76.333 C 62.335 79.331,63.186 82.908,63.496 83.583 C 63.580 83.767,63.797 84.442,63.978 85.083 C 64.849 88.170,66.932 92.716,68.751 95.500 C 69.320 96.371,69.973 97.383,70.203 97.750 C 71.370 99.614,76.035 104.072,77.731 104.944 C 78.613 105.397,79.004 105.251,78.613 104.614 C 78.505 104.437,78.341 104.171,78.249 104.021 C 78.049 103.696,76.223 100.548,75.977 100.104 C 75.629 99.474,73.359 94.881,72.837 93.750 C 70.902 89.557,69.491 85.601,67.486 78.750 C 66.169 74.247,65.015 64.991,65.005 58.841 C 64.998 54.508,65.828 47.068,66.502 45.417 C 66.638 45.084,66.866 44.242,67.197 42.848 C 68.070 39.174,71.528 33.778,73.684 32.726 C 75.482 31.848,75.508 31.974,73.865 33.633 C 72.681 34.829,71.150 37.225,70.543 38.833 C 70.093 40.025,69.199 42.774,69.025 43.500 C 67.562 49.598,67.163 53.202,67.165 60.286 C 67.166 63.711,67.243 65.897,67.406 67.119 C 67.538 68.108,67.678 69.217,67.718 69.583 C 67.811 70.447,68.402 73.446,68.752 74.833 C 68.902 75.429,69.085 76.179,69.159 76.500 C 70.123 80.711,72.238 86.990,74.461 92.244 C 74.964 93.432,75.437 94.520,75.513 94.661 C 75.589 94.801,75.771 95.217,75.919 95.583 C 76.544 97.133,80.259 104.500,80.454 104.575 C 80.761 104.692,80.732 104.197,80.178 99.796 C 78.964 90.158,79.132 80.697,80.579 77.236 C 80.867 76.544,80.943 76.540,82.044 77.150 C 84.949 78.760,88.622 78.534,92.671 76.497 C 97.748 73.944,101.722 77.267,103.740 85.750 C 105.098 91.464,105.508 94.916,105.653 101.876 C 105.712 104.674,105.814 106.513,105.913 106.530 C 106.501 106.633,109.577 101.226,111.334 97.000 C 111.810 95.854,112.266 94.767,112.347 94.583 C 112.886 93.360,114.293 89.139,114.903 86.917 C 115.054 86.367,115.245 85.692,115.328 85.417 C 115.462 84.970,116.086 82.169,116.497 80.167 C 117.901 73.338,117.963 65.443,116.655 60.374 C 115.885 57.392,115.884 57.369,116.527 56.496 C 117.322 55.419,117.449 55.159,117.762 53.975 C 118.721 50.341,117.177 43.343,114.379 38.639 C 114.125 38.212,113.700 37.499,113.435 37.056 C 109.807 30.988,104.087 25.877,98.083 23.342 C 95.184 22.117,89.601 21.224,87.250 21.609 M92.690 26.829 C 95.490 27.419,97.582 28.312,99.583 29.769 C 100.133 30.170,100.856 30.693,101.189 30.933 C 102.929 32.184,108.484 38.738,108.116 39.106 C 107.952 39.270,107.077 38.687,106.333 37.919 C 103.639 35.136,97.821 31.208,95.000 30.266 C 91.133 28.975,86.009 29.392,81.684 31.351 C 80.507 31.885,80.167 31.811,80.167 31.024 C 80.167 30.136,83.186 27.771,84.900 27.317 C 87.460 26.638,88.066 26.533,89.523 26.517 C 90.548 26.506,91.695 26.619,92.690 26.829 M83.833 38.903 C 84.891 39.133,85.501 39.334,88.917 40.579 C 93.270 42.167,96.031 42.832,98.272 42.833 C 99.377 42.833,99.495 42.869,99.958 43.342 C 102.376 45.816,103.362 54.774,101.726 59.417 C 101.500 60.058,101.124 61.146,100.891 61.833 C 98.744 68.157,93.313 74.468,89.274 75.331 C 88.894 75.412,88.283 75.557,87.917 75.652 C 83.494 76.802,79.475 73.383,76.180 65.667 C 75.965 65.162,75.690 64.525,75.569 64.250 C 73.083 58.605,72.449 54.841,73.087 49.527 C 73.679 44.597,74.276 43.375,77.250 41.007 C 80.102 38.736,81.304 38.352,83.833 38.903 M160.065 47.563 C 157.220 48.851,158.250 53.024,161.358 52.799 C 162.708 52.702,163.472 51.959,163.751 50.470 C 164.099 48.616,161.779 46.787,160.065 47.563 M276.250 47.503 C 275.975 47.581,275.487 47.716,275.167 47.803 C 270.952 48.944,270.959 48.939,272.524 49.626 C 273.621 50.107,273.622 50.122,273.762 60.950 C 273.892 71.079,273.913 70.776,273.039 71.425 C 272.836 71.577,272.836 71.628,273.042 71.799 C 273.314 72.025,278.667 72.299,278.667 72.087 C 278.667 72.015,278.498 71.685,278.292 71.353 L 277.917 70.750 277.801 59.190 C 277.738 52.832,277.663 47.607,277.634 47.579 C 277.479 47.423,276.684 47.380,276.250 47.503 M256.641 49.042 C 256.390 49.247,256.211 49.703,254.497 54.500 C 254.023 55.829,253.575 57.067,253.501 57.250 C 253.428 57.433,253.253 57.921,253.111 58.333 C 252.969 58.746,252.351 60.471,251.736 62.167 C 251.121 63.862,250.304 66.150,249.919 67.250 C 248.915 70.120,248.395 70.921,247.204 71.431 L 246.750 71.626 247.212 71.810 C 247.466 71.912,248.505 72.045,249.521 72.107 L 251.369 72.219 251.087 71.674 C 250.663 70.854,250.827 69.583,251.696 66.940 C 252.624 64.120,252.239 64.339,256.266 64.336 C 260.033 64.333,259.866 64.280,260.469 65.667 C 260.648 66.079,261.110 67.083,261.496 67.897 C 262.659 70.354,262.737 70.656,262.345 71.187 C 261.885 71.808,262.002 71.833,265.319 71.833 C 268.450 71.833,268.472 71.827,267.922 71.104 C 267.607 70.691,265.693 66.724,265.016 65.083 C 264.843 64.663,264.443 63.780,263.267 61.218 C 262.753 60.100,262.333 59.149,262.333 59.103 C 262.333 59.057,261.996 58.303,261.583 57.426 C 261.171 56.549,260.833 55.800,260.833 55.762 C 260.833 55.724,260.458 54.893,260.000 53.917 C 259.542 52.940,259.167 52.114,259.167 52.080 C 259.167 51.865,257.768 49.062,257.611 48.962 C 257.319 48.776,256.928 48.808,256.641 49.042 M140.750 49.438 C 132.262 50.302,127.215 56.871,129.470 64.119 C 131.654 71.140,142.115 74.577,149.662 70.753 L 150.483 70.336 150.533 66.431 C 150.582 62.649,150.595 62.514,150.957 62.129 C 151.615 61.429,151.252 61.333,147.956 61.333 C 144.484 61.333,143.892 61.479,145.030 62.054 C 146.187 62.637,146.292 63.023,146.371 66.975 L 146.438 70.366 146.018 70.642 C 145.673 70.867,145.134 70.917,143.007 70.917 L 140.417 70.917 138.995 70.221 C 132.295 66.944,132.197 54.655,138.848 51.714 C 142.353 50.164,147.232 51.512,149.279 54.595 C 150.099 55.830,150.219 55.619,150.054 53.232 L 149.917 51.254 149.250 50.911 C 147.165 49.837,143.338 49.174,140.750 49.438 M319.389 51.625 C 318.314 53.264,316.902 54.831,316.011 55.371 C 314.913 56.038,314.897 56.332,315.958 56.336 C 317.180 56.340,317.105 55.955,317.226 62.917 C 317.374 71.467,317.610 72.095,320.752 72.297 C 322.817 72.430,326.000 71.058,326.000 70.035 C 326.000 69.864,325.891 69.826,325.625 69.904 C 321.466 71.119,321.334 70.909,321.211 62.876 C 321.099 55.639,320.828 56.362,323.677 56.297 L 325.750 56.250 325.800 55.736 C 325.877 54.952,325.605 54.849,323.323 54.797 L 321.250 54.750 321.203 52.677 C 321.134 49.631,320.817 49.447,319.389 51.625 M161.583 55.101 C 161.217 55.235,160.204 55.537,159.333 55.772 C 157.460 56.276,157.027 56.566,157.763 56.824 C 159.486 57.428,159.460 57.314,159.523 64.530 L 159.575 70.454 159.104 71.071 C 158.845 71.411,158.682 71.737,158.741 71.797 C 159.045 72.101,164.333 72.298,164.333 72.005 C 164.333 71.916,164.167 71.524,163.963 71.133 C 163.599 70.435,163.591 70.285,163.528 62.919 C 163.452 54.112,163.521 54.391,161.583 55.101 M173.333 55.022 C 173.104 55.113,172.126 55.398,171.160 55.653 C 168.924 56.244,167.854 56.833,169.016 56.833 C 170.684 56.833,170.791 57.250,170.935 64.263 C 171.060 70.418,171.049 70.573,170.409 71.212 C 169.767 71.854,170.194 71.994,173.168 72.116 C 175.856 72.226,175.839 72.233,175.354 71.328 C 174.992 70.652,174.741 58.182,175.083 57.860 C 175.582 57.389,177.984 57.204,178.855 57.569 C 180.569 58.287,180.734 58.922,180.802 65.051 C 180.865 70.713,180.870 70.678,179.813 71.321 L 179.311 71.626 179.864 71.819 C 180.638 72.089,185.667 72.277,185.667 72.036 C 185.667 71.935,185.498 71.567,185.292 71.218 C 184.928 70.603,184.914 70.405,184.815 64.833 C 184.712 58.983,184.635 58.245,183.997 56.994 C 182.653 54.360,179.613 54.157,175.810 56.449 C 175.107 56.872,175.000 56.819,175.000 56.045 C 175.000 54.919,174.443 54.577,173.333 55.022 M194.214 55.064 C 189.858 56.493,188.648 61.002,191.775 64.155 C 192.915 65.304,192.914 65.250,191.818 65.830 C 189.112 67.262,189.061 70.733,191.726 72.138 L 192.368 72.477 191.976 72.833 C 191.760 73.029,191.199 73.479,190.730 73.832 C 187.278 76.428,189.216 80.431,194.093 80.780 C 201.805 81.332,207.700 73.211,202.015 69.866 C 200.279 68.845,197.049 68.469,195.405 69.096 C 194.040 69.618,192.500 68.825,192.500 67.600 C 192.500 66.315,193.352 65.833,195.623 65.833 C 200.156 65.833,203.047 62.608,201.864 58.871 C 201.435 57.519,201.582 57.333,203.082 57.333 C 204.621 57.333,204.667 57.299,204.667 56.144 C 204.667 54.866,204.599 54.845,202.192 55.395 C 199.828 55.934,199.927 55.934,198.748 55.395 C 197.576 54.858,195.341 54.695,194.214 55.064 M212.583 55.058 C 207.327 56.804,204.798 63.278,207.372 68.399 C 209.406 72.447,215.790 73.343,220.208 70.199 C 221.491 69.286,221.302 68.997,219.691 69.405 C 214.991 70.595,211.214 68.023,210.720 63.298 C 210.561 61.777,210.354 61.833,216.120 61.833 C 221.699 61.833,221.342 61.944,220.996 60.316 C 220.214 56.627,215.926 53.947,212.583 55.058 M229.000 55.003 C 228.771 55.080,227.790 55.364,226.820 55.634 C 224.231 56.354,223.732 56.702,224.982 56.914 C 226.466 57.164,226.597 57.966,226.651 67.147 C 226.671 70.525,226.203 71.833,224.973 71.833 C 224.780 71.833,224.668 71.921,224.708 72.042 C 224.784 72.270,230.250 72.439,231.312 72.246 L 231.874 72.144 231.424 71.674 C 230.746 70.966,230.690 70.420,230.653 64.108 C 230.612 56.938,230.526 57.120,233.277 58.583 C 235.688 59.866,237.167 59.411,237.166 57.386 C 237.165 54.763,234.464 54.055,231.695 55.951 C 230.736 56.607,230.508 56.552,230.503 55.658 C 230.498 54.898,229.980 54.672,229.000 55.003 M289.083 55.147 C 284.612 56.764,282.140 61.823,283.420 66.737 C 284.753 71.854,291.400 73.773,296.487 70.508 C 298.173 69.427,298.163 68.976,296.464 69.441 C 292.564 70.509,289.182 68.827,287.895 65.182 C 287.574 64.273,287.338 62.128,287.542 61.967 C 287.565 61.949,289.871 61.892,292.667 61.842 L 297.750 61.750 297.718 60.802 C 297.590 56.966,292.774 53.812,289.083 55.147 M305.667 55.018 C 305.438 55.112,304.460 55.398,303.493 55.653 C 300.952 56.325,300.451 56.682,301.714 56.922 C 303.157 57.196,303.162 57.219,303.209 64.394 L 303.250 70.641 302.768 71.146 C 302.503 71.423,302.068 71.698,301.801 71.757 C 300.104 72.130,306.034 72.599,307.979 72.246 L 308.541 72.144 308.113 71.697 C 307.442 70.995,307.353 70.130,307.322 64.012 C 307.287 56.935,307.174 57.164,310.000 58.583 C 312.601 59.889,313.750 59.515,313.750 57.361 C 313.750 54.653,311.406 54.012,308.501 55.927 C 307.264 56.742,307.294 56.747,307.174 55.701 C 307.074 54.839,306.613 54.629,305.667 55.018 M332.250 55.169 C 326.811 57.259,327.513 62.183,333.692 65.284 C 336.519 66.703,337.245 68.828,335.396 70.279 C 333.412 71.837,330.813 71.387,329.387 69.238 C 328.621 68.084,328.440 68.289,328.621 70.104 L 328.750 71.391 329.500 71.772 C 333.178 73.640,337.688 72.316,339.509 68.833 C 339.636 68.591,339.732 67.819,339.739 66.986 C 339.757 64.708,338.776 63.481,335.733 61.973 C 331.591 59.919,330.346 57.208,333.113 56.266 C 334.847 55.675,336.382 56.086,337.687 57.491 C 338.203 58.046,338.665 58.500,338.713 58.500 C 338.895 58.500,339.015 56.894,338.863 56.494 C 338.383 55.231,334.246 54.402,332.250 55.169 M196.899 56.182 C 197.143 56.374,197.484 56.809,197.658 57.149 C 199.478 60.717,197.455 66.614,195.208 64.292 C 192.587 61.583,194.162 54.029,196.899 56.182 M215.910 56.392 C 217.663 57.342,217.792 59.784,216.118 60.315 C 215.381 60.548,212.396 60.870,211.583 60.804 C 210.779 60.739,210.727 60.243,211.349 58.580 C 212.231 56.223,214.017 55.366,215.910 56.392 M257.330 58.625 C 257.995 60.160,258.718 61.780,258.936 62.223 C 259.155 62.667,259.292 63.098,259.241 63.182 C 259.082 63.438,253.338 63.374,253.239 63.115 C 253.193 62.995,253.615 61.551,254.176 59.907 C 254.737 58.262,255.268 56.673,255.356 56.375 C 255.690 55.242,256.036 55.636,257.330 58.625 M292.486 56.326 C 293.462 56.824,294.000 57.559,293.998 58.388 C 293.992 60.003,293.310 60.419,290.206 60.701 C 287.488 60.947,287.424 60.916,287.782 59.536 C 288.546 56.589,290.452 55.289,292.486 56.326 M269.250 72.000 C 269.190 72.097,269.363 72.167,269.667 72.167 C 269.971 72.167,270.144 72.097,270.083 72.000 C 270.027 71.908,269.839 71.833,269.667 71.833 C 269.494 71.833,269.307 71.908,269.250 72.000 M198.862 73.066 C 201.724 74.076,202.216 75.722,200.222 77.608 C 197.656 80.034,193.301 80.094,192.151 77.718 C 190.459 74.223,194.400 71.491,198.862 73.066 " stroke="none" fill="#ae1635" fill-rule="evenodd"></path><path id="path1" d="M0.000 67.750 L 0.000 135.500 200.000 135.500 L 400.000 135.500 400.000 67.750 L 400.000 0.000 200.000 0.000 L 0.000 0.000 0.000 67.750 M93.333 21.983 C 101.168 23.487,108.699 29.134,113.435 37.056 C 113.700 37.499,114.125 38.212,114.379 38.639 C 117.177 43.343,118.721 50.341,117.762 53.975 C 117.449 55.159,117.322 55.419,116.527 56.496 C 115.884 57.369,115.885 57.392,116.655 60.374 C 117.963 65.443,117.901 73.338,116.497 80.167 C 116.086 82.169,115.462 84.970,115.328 85.417 C 115.245 85.692,115.054 86.367,114.903 86.917 C 114.293 89.139,112.886 93.360,112.347 94.583 C 112.266 94.767,111.810 95.854,111.334 97.000 C 109.577 101.226,106.501 106.633,105.913 106.530 C 105.814 106.513,105.712 104.674,105.653 101.876 C 105.508 94.916,105.098 91.464,103.740 85.750 C 101.722 77.267,97.748 73.944,92.671 76.497 C 88.622 78.534,84.949 78.760,82.044 77.150 C 80.943 76.540,80.867 76.544,80.579 77.236 C 79.132 80.697,78.964 90.158,80.178 99.796 C 80.732 104.197,80.761 104.692,80.454 104.575 C 80.259 104.500,76.544 97.133,75.919 95.583 C 75.771 95.217,75.589 94.801,75.513 94.661 C 74.738 93.221,72.724 88.038,71.338 83.917 C 70.097 80.226,69.713 78.918,69.159 76.500 C 69.085 76.179,68.902 75.429,68.752 74.833 C 68.402 73.446,67.811 70.447,67.718 69.583 C 67.678 69.217,67.538 68.108,67.406 67.119 C 67.243 65.897,67.166 63.711,67.165 60.286 C 67.163 53.202,67.562 49.598,69.025 43.500 C 69.199 42.774,70.093 40.025,70.543 38.833 C 71.150 37.225,72.681 34.829,73.865 33.633 C 75.508 31.974,75.482 31.848,73.684 32.726 C 71.528 33.778,68.070 39.174,67.197 42.848 C 66.866 44.242,66.638 45.084,66.502 45.417 C 65.828 47.068,64.998 54.508,65.005 58.841 C 65.015 64.991,66.169 74.247,67.486 78.750 C 69.491 85.601,70.902 89.557,72.837 93.750 C 73.359 94.881,75.629 99.474,75.977 100.104 C 76.223 100.548,78.049 103.696,78.249 104.021 C 78.341 104.171,78.505 104.437,78.613 104.614 C 79.004 105.251,78.613 105.397,77.731 104.944 C 76.035 104.072,71.370 99.614,70.203 97.750 C 69.973 97.383,69.320 96.371,68.751 95.500 C 66.932 92.716,64.849 88.170,63.978 85.083 C 63.797 84.442,63.580 83.767,63.496 83.583 C 60.951 78.041,59.682 60.528,61.082 50.250 C 62.890 36.970,69.471 27.127,75.418 28.808 C 76.141 29.012,76.308 28.899,76.745 27.912 C 78.039 24.986,81.193 22.758,85.105 22.007 C 86.010 21.833,86.975 21.654,87.250 21.609 C 88.243 21.447,91.620 21.654,93.333 21.983 M86.667 26.857 C 85.979 27.034,85.184 27.241,84.900 27.317 C 83.186 27.771,80.167 30.136,80.167 31.024 C 80.167 31.811,80.507 31.885,81.684 31.351 C 86.009 29.392,91.133 28.975,95.000 30.266 C 97.821 31.208,103.639 35.136,106.333 37.919 C 107.077 38.687,107.952 39.270,108.116 39.106 C 108.484 38.738,102.929 32.184,101.189 30.933 C 100.856 30.693,100.133 30.170,99.583 29.769 C 95.877 27.069,90.523 25.862,86.667 26.857 M80.917 38.854 C 78.718 39.360,75.191 42.306,74.258 44.414 C 71.950 49.633,72.447 57.161,75.569 64.250 C 75.690 64.525,75.965 65.162,76.180 65.667 C 79.475 73.383,83.494 76.802,87.917 75.652 C 88.283 75.557,88.894 75.412,89.274 75.331 C 93.313 74.468,98.744 68.157,100.891 61.833 C 101.124 61.146,101.500 60.058,101.726 59.417 C 103.362 54.774,102.376 45.816,99.958 43.342 C 99.495 42.869,99.377 42.833,98.272 42.833 C 96.031 42.832,93.270 42.167,88.917 40.579 C 85.501 39.334,84.891 39.133,83.833 38.903 C 82.624 38.639,81.901 38.627,80.917 38.854 M162.630 47.941 C 164.651 49.483,163.830 52.620,161.358 52.799 C 160.169 52.885,159.499 52.583,158.931 51.704 C 157.239 49.084,160.191 46.081,162.630 47.941 M277.634 47.579 C 277.663 47.607,277.738 52.832,277.801 59.190 L 277.917 70.750 278.292 71.353 C 278.498 71.685,278.667 72.015,278.667 72.087 C 278.667 72.299,273.314 72.025,273.042 71.799 C 272.836 71.628,272.836 71.577,273.039 71.425 C 273.913 70.776,273.892 71.079,273.762 60.950 C 273.622 50.122,273.621 50.107,272.524 49.626 C 270.959 48.939,270.952 48.944,275.167 47.803 C 275.487 47.716,275.975 47.581,276.250 47.503 C 276.684 47.380,277.479 47.423,277.634 47.579 M257.611 48.962 C 257.768 49.062,259.167 51.865,259.167 52.080 C 259.167 52.114,259.542 52.940,260.000 53.917 C 260.458 54.893,260.833 55.724,260.833 55.762 C 260.833 55.800,261.171 56.549,261.583 57.426 C 261.996 58.303,262.333 59.057,262.333 59.103 C 262.333 59.149,262.753 60.100,263.267 61.218 C 264.443 63.780,264.843 64.663,265.016 65.083 C 265.693 66.724,267.607 70.691,267.922 71.104 C 268.472 71.827,268.450 71.833,265.319 71.833 C 262.002 71.833,261.885 71.808,262.345 71.187 C 262.737 70.656,262.659 70.354,261.496 67.897 C 261.110 67.083,260.648 66.079,260.469 65.667 C 259.866 64.280,260.033 64.333,256.266 64.336 C 252.239 64.339,252.624 64.120,251.696 66.940 C 250.827 69.583,250.663 70.854,251.087 71.674 L 251.369 72.219 249.521 72.107 C 248.505 72.045,247.466 71.912,247.212 71.810 L 246.750 71.626 247.204 71.431 C 248.395 70.921,248.915 70.120,249.919 67.250 C 250.304 66.150,251.121 63.862,251.736 62.167 C 252.351 60.471,252.969 58.746,253.111 58.333 C 253.253 57.921,253.428 57.433,253.501 57.250 C 253.575 57.067,254.023 55.829,254.497 54.500 C 256.211 49.703,256.390 49.247,256.641 49.042 C 256.928 48.808,257.319 48.776,257.611 48.962 M145.833 49.769 C 147.204 50.042,148.226 50.384,149.250 50.911 L 149.917 51.254 150.054 53.232 C 150.219 55.619,150.099 55.830,149.279 54.595 C 147.232 51.512,142.353 50.164,138.848 51.714 C 132.197 54.655,132.295 66.944,138.995 70.221 L 140.417 70.917 143.007 70.917 C 145.134 70.917,145.673 70.867,146.018 70.642 L 146.438 70.366 146.371 66.975 C 146.292 63.023,146.187 62.637,145.030 62.054 C 143.892 61.479,144.484 61.333,147.956 61.333 C 151.252 61.333,151.615 61.429,150.957 62.129 C 150.595 62.514,150.582 62.649,150.533 66.431 L 150.483 70.336 149.662 70.753 C 142.115 74.577,131.654 71.140,129.470 64.119 C 126.668 55.110,135.178 47.648,145.833 49.769 M320.974 50.386 C 321.078 50.510,321.176 51.498,321.203 52.677 L 321.250 54.750 323.323 54.797 C 325.605 54.849,325.877 54.952,325.800 55.736 L 325.750 56.250 323.677 56.297 C 320.828 56.362,321.099 55.639,321.211 62.876 C 321.334 70.909,321.466 71.119,325.625 69.904 C 326.548 69.634,325.876 70.577,324.583 71.365 C 322.246 72.791,319.130 72.622,318.044 71.011 C 317.403 70.059,317.338 69.422,317.226 62.917 C 317.105 55.955,317.180 56.340,315.958 56.336 C 314.897 56.332,314.913 56.038,316.011 55.371 C 316.902 54.831,318.314 53.264,319.389 51.625 C 320.334 50.183,320.620 49.959,320.974 50.386 M163.309 55.125 C 163.394 55.285,163.492 58.793,163.528 62.919 C 163.591 70.285,163.599 70.435,163.963 71.133 C 164.167 71.524,164.333 71.916,164.333 72.005 C 164.333 72.298,159.045 72.101,158.741 71.797 C 158.682 71.737,158.845 71.411,159.104 71.071 L 159.575 70.454 159.523 64.530 C 159.460 57.314,159.486 57.428,157.763 56.824 C 157.027 56.566,157.460 56.276,159.333 55.772 C 160.204 55.537,161.217 55.235,161.583 55.101 C 162.504 54.764,163.123 54.772,163.309 55.125 M174.827 55.156 C 174.922 55.333,175.000 55.733,175.000 56.045 C 175.000 56.819,175.107 56.872,175.810 56.449 C 179.613 54.157,182.653 54.360,183.997 56.994 C 184.635 58.245,184.712 58.983,184.815 64.833 C 184.914 70.405,184.928 70.603,185.292 71.218 C 185.498 71.567,185.667 71.935,185.667 72.036 C 185.667 72.277,180.638 72.089,179.864 71.819 L 179.311 71.626 179.813 71.321 C 180.870 70.678,180.865 70.713,180.802 65.051 C 180.734 58.922,180.569 58.287,178.855 57.569 C 177.984 57.204,175.582 57.389,175.083 57.860 C 174.741 58.182,174.992 70.652,175.354 71.328 C 175.839 72.233,175.856 72.226,173.168 72.116 C 170.194 71.994,169.767 71.854,170.409 71.212 C 171.049 70.573,171.060 70.418,170.935 64.263 C 170.791 57.250,170.684 56.833,169.016 56.833 C 167.854 56.833,168.924 56.244,171.160 55.653 C 172.126 55.398,173.104 55.113,173.333 55.022 C 174.021 54.746,174.638 54.801,174.827 55.156 M198.748 55.395 C 199.927 55.934,199.828 55.934,202.192 55.395 C 204.599 54.845,204.667 54.866,204.667 56.144 C 204.667 57.299,204.621 57.333,203.082 57.333 C 201.582 57.333,201.435 57.519,201.864 58.871 C 203.047 62.608,200.156 65.833,195.623 65.833 C 193.352 65.833,192.500 66.315,192.500 67.600 C 192.500 68.825,194.040 69.618,195.405 69.096 C 197.049 68.469,200.279 68.845,202.015 69.866 C 207.700 73.211,201.805 81.332,194.093 80.780 C 189.216 80.431,187.278 76.428,190.730 73.832 C 191.199 73.479,191.760 73.029,191.976 72.833 L 192.368 72.477 191.726 72.138 C 189.061 70.733,189.112 67.262,191.818 65.830 C 192.914 65.250,192.915 65.304,191.775 64.155 C 187.205 59.547,192.710 52.630,198.748 55.395 M217.008 55.442 C 219.006 56.381,220.566 58.287,220.996 60.316 C 221.342 61.944,221.699 61.833,216.120 61.833 C 210.354 61.833,210.561 61.777,210.720 63.298 C 211.214 68.023,214.991 70.595,219.691 69.405 C 221.302 68.997,221.491 69.286,220.208 70.199 C 215.790 73.343,209.406 72.447,207.372 68.399 C 203.800 61.290,210.443 52.358,217.008 55.442 M230.300 55.033 C 230.410 55.143,230.501 55.425,230.503 55.658 C 230.508 56.552,230.736 56.607,231.695 55.951 C 234.464 54.055,237.165 54.763,237.166 57.386 C 237.167 59.411,235.688 59.866,233.277 58.583 C 230.526 57.120,230.612 56.938,230.653 64.108 C 230.690 70.420,230.746 70.966,231.424 71.674 L 231.874 72.144 231.312 72.246 C 230.250 72.439,224.784 72.270,224.708 72.042 C 224.668 71.921,224.780 71.833,224.973 71.833 C 226.203 71.833,226.671 70.525,226.651 67.147 C 226.597 57.966,226.466 57.164,224.982 56.914 C 223.732 56.702,224.231 56.354,226.820 55.634 C 227.790 55.364,228.771 55.080,229.000 55.003 C 229.612 54.796,230.074 54.807,230.300 55.033 M293.033 55.149 C 295.584 56.027,297.642 58.509,297.718 60.802 L 297.750 61.750 292.667 61.842 C 289.871 61.892,287.565 61.949,287.542 61.967 C 287.338 62.128,287.574 64.273,287.895 65.182 C 289.182 68.827,292.564 70.509,296.464 69.441 C 298.163 68.976,298.173 69.427,296.487 70.508 C 291.400 73.773,284.753 71.854,283.420 66.737 C 281.670 60.016,287.334 53.189,293.033 55.149 M307.174 55.701 C 307.294 56.747,307.264 56.742,308.501 55.927 C 311.406 54.012,313.750 54.653,313.750 57.361 C 313.750 59.515,312.601 59.889,310.000 58.583 C 307.174 57.164,307.287 56.935,307.322 64.012 C 307.353 70.130,307.442 70.995,308.113 71.697 L 308.541 72.144 307.979 72.246 C 306.034 72.599,300.104 72.130,301.801 71.757 C 302.068 71.698,302.503 71.423,302.768 71.146 L 303.250 70.641 303.209 64.394 C 303.162 57.219,303.157 57.196,301.714 56.922 C 300.451 56.682,300.952 56.325,303.493 55.653 C 304.460 55.398,305.438 55.112,305.667 55.018 C 306.613 54.629,307.074 54.839,307.174 55.701 M336.255 55.092 C 338.530 55.684,339.111 56.255,338.911 57.705 C 338.775 58.696,338.813 58.703,337.687 57.491 C 336.382 56.086,334.847 55.675,333.113 56.266 C 330.346 57.208,331.591 59.919,335.733 61.973 C 339.948 64.062,341.006 66.997,338.657 70.083 C 336.743 72.598,332.623 73.358,329.500 71.772 L 328.750 71.391 328.621 70.104 C 328.440 68.289,328.621 68.084,329.387 69.238 C 330.813 71.387,333.412 71.837,335.396 70.279 C 337.245 68.828,336.519 66.703,333.692 65.284 C 330.290 63.576,328.672 61.699,328.668 59.453 C 328.663 56.252,332.419 54.093,336.255 55.092 M195.093 56.226 C 193.379 57.815,193.445 62.470,195.208 64.292 C 197.455 66.614,199.478 60.717,197.658 57.149 C 197.009 55.877,195.900 55.478,195.093 56.226 M213.771 55.953 C 211.986 56.225,209.980 60.674,211.583 60.804 C 213.735 60.980,216.522 60.356,216.993 59.595 C 218.081 57.834,216.103 55.599,213.771 55.953 M255.356 56.375 C 255.268 56.673,254.737 58.262,254.176 59.907 C 253.615 61.551,253.193 62.995,253.239 63.115 C 253.338 63.374,259.082 63.438,259.241 63.182 C 259.292 63.098,259.155 62.667,258.936 62.223 C 258.718 61.780,257.995 60.160,257.330 58.625 C 256.036 55.636,255.690 55.242,255.356 56.375 M289.567 56.471 C 288.439 57.289,287.203 60.212,287.782 60.693 C 288.538 61.321,293.359 60.363,293.788 59.500 C 294.905 57.254,291.680 54.940,289.567 56.471 M270.083 72.000 C 270.144 72.097,269.971 72.167,269.667 72.167 C 269.363 72.167,269.190 72.097,269.250 72.000 C 269.307 71.908,269.494 71.833,269.667 71.833 C 269.839 71.833,270.027 71.908,270.083 72.000 M194.294 72.833 C 190.869 73.864,191.039 78.957,194.515 79.433 C 198.885 80.032,203.311 75.835,200.454 73.801 C 199.128 72.856,195.900 72.349,194.294 72.833 " stroke="none" fill="#fbfbfb" fill-rule="evenodd"></path></g></svg>